<svg xmlns="http://www.w3.org/2000/svg" viewBox="0 0 64 64" role="img" aria-label="ElectricPe">
  <title>ElectricPe</title>
  <defs>
    <linearGradient id="pinFill" x1="32" y1="2" x2="32" y2="62" gradientUnits="userSpaceOnUse">
      <stop offset="0%" stop-color="#4ADE80"/>
      <stop offset="55%" stop-color="#22C55E"/>
      <stop offset="100%" stop-color="#15803D"/>
    </linearGradient>
    <radialGradient id="pinShine" cx="40%" cy="30%" r="55%">
      <stop offset="0%" stop-color="#FFFFFF" stop-opacity="0.35"/>
      <stop offset="60%" stop-color="#FFFFFF" stop-opacity="0"/>
    </radialGradient>
  </defs>
  <!-- Map-pin silhouette with brand-green gradient -->
  <path
    d="M32 2.5c13.255 0 24 10.745 24 24 0 8.5-5.28 18.25-12.48 26.15-3.6 3.95-7.21 7.18-9.9 9.35a2.6 2.6 0 0 1-3.24 0c-2.69-2.17-6.3-5.4-9.9-9.35C13.28 44.75 8 35 8 26.5 8 13.245 18.745 2.5 32 2.5z"
    fill="url(#pinFill)"
  />
  <!-- Specular highlight for depth -->
  <path
    d="M32 2.5c13.255 0 24 10.745 24 24 0 8.5-5.28 18.25-12.48 26.15-3.6 3.95-7.21 7.18-9.9 9.35a2.6 2.6 0 0 1-3.24 0c-2.69-2.17-6.3-5.4-9.9-9.35C13.28 44.75 8 35 8 26.5 8 13.245 18.745 2.5 32 2.5z"
    fill="url(#pinShine)"
  />
  <!-- White lightning bolt inside the pin -->
  <path
    d="M36.6 11.2L21.5 30.6a1.1 1.1 0 0 0 .87 1.78h6.68l-2.35 11.2a1.1 1.1 0 0 0 1.95.8l15.1-19.4a1.1 1.1 0 0 0-.87-1.78h-6.68l2.35-11.2a1.1 1.1 0 0 0-1.95-.8z"
    fill="#FFFFFF"
  />
</svg>
